HIERARCHY
ROOT pelvis
{
  OFFSET 0 100 0
  CHANNELS 6 Xposition Yposition Zposition Zrotation Xrotation Yrotation
  JOINT pelvis_right_femur
  {
    OFFSET -10.78128 -3.44521 -0.5502486
    CHANNELS 3 Zrotation Xrotation Yrotation
    JOINT right_femur_tibia
    {
      OFFSET -0.8047443 -44.0398 -0.1307829
      CHANNELS 3 Zrotation Xrotation Yrotation
      JOINT right_tibia_foot
      {
        OFFSET 3.006224 -47.83518 -5
        CHANNELS 3 Zrotation Xrotation Yrotation
        End Site
        {
          OFFSET 0 -5 15
        }
      }
    }
  }
  JOINT pelvis_left_femur
  {
    OFFSET 10.78128 -3.44521 -0.5502486
    CHANNELS 3 Zrotation Xrotation Yrotation
    JOINT left_femur_tibia
    {
      OFFSET 0.8047443 -44.0398 -0.1307829
      CHANNELS 3 Zrotation Xrotation Yrotation
      JOINT left_tibia_foot
      {
        OFFSET -4.370144 -48.10324 -4.275266
        CHANNELS 3 Zrotation Xrotation Yrotation
        End Site
        {
          OFFSET 0 -5 15
        }
      }
    }
  }
  JOINT pelvis_spine1
  {
    OFFSET 0 6.468898 -3.129235
    CHANNELS 3 Zrotation Xrotation Yrotation
    JOINT spine1
    {
      OFFSET 0 23.15396 4.99043
      CHANNELS 3 Zrotation Xrotation Yrotation
      JOINT spine2
      {
        OFFSET 0 20.79997 -5.064912
        CHANNELS 3 Zrotation Xrotation Yrotation
        JOINT neck
        {
          OFFSET 0 14.38658 9.616178
          CHANNELS 3 Zrotation Xrotation Yrotation
          End Site
          {
            OFFSET 0 20 0
          }
        }
      }
      JOINT right_manubrium
      {
        OFFSET -5.722621 16.35077 3.967754
        CHANNELS 3 Zrotation Xrotation Yrotation
        JOINT right_clavicle
        {
          OFFSET -13.16364 1.694482 -4.693211
          CHANNELS 3 Zrotation Xrotation Yrotation
          JOINT right_humerus
          {
            OFFSET -28.5034 -0.3100689 -2.792744
            CHANNELS 3 Zrotation Xrotation Yrotation
            JOINT right_radius
            {
              OFFSET -25.15693 0.02248979 -1.271978
              CHANNELS 3 Zrotation Xrotation Yrotation
              End Site
              {
                OFFSET -15 0 0
              }
            }
          }
        }
      }
      JOINT left_manubrium
      {
        OFFSET 5.722621 16.35077 3.967754
        CHANNELS 3 Zrotation Xrotation Yrotation
        JOINT left_clavicle
        {
          OFFSET 13.16364 1.694482 -4.693211
          CHANNELS 3 Zrotation Xrotation Yrotation
          JOINT left_humerus
          {
            OFFSET 29.39168 -1.063119 -2.237045
            CHANNELS 3 Zrotation Xrotation Yrotation
            JOINT left_radius
            {
              OFFSET 24.59957 -0.9528479 0.9047498
              CHANNELS 3 Zrotation Xrotation Yrotation
              End Site
              {
                OFFSET 15 -0 -0
              }
            }
          }
        }
      }
    }
  }
}
MOTION
Frames: 21
Frame Time: 0.0416666666667
0 103.5113 0 0.34791 -1.738618 0.01707689 3.824817 -16.39319 8.358171 -0 37.29523 -0 -7.197731 -16.37028 -4.625707 -5.942788 12.01871 -22.77478 -0 4.935632 -0 6.434843 -16.93895 24.98713 -2.24364 -3.324936 4.288315 2.256841 10.21441 -6.763774 1.667291 22.23135 6.644938 3.81727 -22.36088 8.786828 6.681733 -18.29297 12.06885 82.04754 30.25084 -16.25579 -0 0 16.59173 -11.42711 10.93709 5.591074 8.160788 -20.53544 -0.9716737 -95.88989 22.41306 21.55195 0 0 -8.801784 15.34665 19.67806 -5.348287
0.1876556 103.3784 1.734453 0.2799174 -0.7673926 0.07086545 4.373242 -19.80196 8.734367 -0 36.00583 -0 -6.287227 -15.59076 -4.349568 -6.117538 12.81282 -22.78474 -0 5.115719 -0 6.23079 -18.34543 24.77649 -2.272785 -3.046641 4.215813 2.411134 10.012 -6.906959 1.59429 22.03892 6.780102 3.778511 -22.85472 8.90916 6.480192 -18.11945 11.93139 82.5615 31.16905 -16.52502 -0 0 15.75031 -11.04151 10.67564 5.661711 8.010793 -20.6002 -0.882592 -94.94909 22.26664 20.75256 0 0 -10.33398 15.22257 18.63708 -4.970212
0.3859408 103.108 3.669055 0.05448297 0.09109111 0.1833658 5.10184 -23.46262 8.392192 -0 33.09629 -0 -6.033471 -13.67404 -3.772368 -6.163418 13.49334 -22.18108 -0 5.672635 -0 6.030277 -19.76465 24.15136 -2.198192 -3.064876 4.320998 2.505893 9.906851 -7.081357 1.576284 21.6825 6.885633 3.727061 -23.4854 9.159569 6.389581 -18.32989 11.84658 83.05296 31.85434 -17.15709 -0 0 15.76782 -10.13613 10.4033 5.232615 8.025079 -20.68574 -0.763374 -94.61996 22.29968 20.73989 0 0 -11.86914 15.2394 18.04482 -4.683682
0.6004012 102.7268 5.880185 -0.1767289 1.212842 0.3709765 5.818388 -27.01727 8.27695 -0 30.03165 -0 -5.429668 -12.19267 -3.277005 -6.184305 13.97172 -21.50051 -0 6.400722 -0 5.39116 -21.07449 23.1448 -2.168166 -2.949618 4.338876 2.630026 9.774207 -7.25099 1.532657 21.39821 6.994668 3.678898 -24.0324 9.336685 6.243305 -18.36324 11.74428 83.5875 32.60986 -17.65151 -0 0 15.37835 -9.511772 10.17089 5.058645 7.959095 -20.78243 -0.6727921 -93.97863 22.20979 20.337 0 0 -13.41581 15.20838 17.2425 -4.378025
0.8346063 102.2326 8.48745 -0.4627525 2.431658 0.6433804 6.531866 -30.34802 8.064227 -0 26.50895 -0 -4.848552 -10.61694 -2.761576 -6.144116 14.28043 -20.56957 -0 7.548638 -0 4.413746 -22.15714 21.69891 -2.130573 -2.854424 4.364905 2.748178 9.659674 -7.422583 1.492534 21.10907 7.094803 3.630834 -24.56798 9.509435 6.105183 -18.42114 11.65108 84.13048 33.31933 -18.17314 -0 0 15.04522 -8.891288 9.957908 4.874312 7.897246 -20.8844 -0.5923529 -93.38309 22.12423 19.99343 0 0 -14.92601 15.1714 16.48399 -4.066835
1.088472 101.6415 11.58515 -0.791693 3.559575 0.9974033 7.156138 -33.03806 7.698137 -0 22.92633 -0 -4.453669 -9.011639 -2.281183 -6.03036 14.44397 -19.45516 -0 9.248511 -0 3.185099 -22.79734 19.91808 -2.107575 -2.726263 4.356825 2.868595 9.557483 -7.589327 1.44527 20.86157 7.186277 3.588907 -25.02877 9.636979 5.966224 -18.41488 11.56532 84.67122 33.98756 -18.64952 -0 0 14.59715 -8.422654 9.795245 4.790501 7.809098 -20.99388 -0.5410968 -92.73061 22.00728 19.55161 0 0 -16.33427 15.09422 15.71956 -3.741793
1.35485 100.9919 15.24232 -1.165414 4.372615 1.415528 7.645949 -34.7454 7.098765 -0 19.64006 -0 -4.453834 -7.488694 -1.90104 -5.806387 14.53161 -18.2145 -0 11.76134 -0 1.782752 -22.78972 17.89215 -2.093117 -2.585195 4.326673 2.982782 9.477206 -7.747189 1.394549 20.65404 7.267301 3.555821 -25.41287 9.723394 5.840091 -18.36774 11.49332 85.19365 34.58737 -19.09182 -0 0 14.09877 -8.086709 9.681917 4.777889 7.704007 -21.10472 -0.5216231 -92.09076 21.89136 19.08878 0 0 -17.5917 14.95976 15.00029 -3.384508
1.620086 100.3637 19.47673 -1.56475 4.672547 1.864535 7.995464 -35.16911 6.306065 -0 17.16327 -0 -4.957397 -6.313933 -1.709749 -5.452115 14.57891 -16.9715 -0 15.33962 -0 0.3008882 -21.96934 15.78046 -2.090926 -2.425392 4.268306 3.086582 9.424448 -7.889502 1.338852 20.50348 7.337007 3.536378 -25.69393 9.755653 5.733264 -18.26365 11.43948 85.67983 35.09971 -19.47779 -0 0 13.53378 -7.929227 9.627798 4.858856 7.576735 -21.21222 -0.5438877 -91.47786 21.78872 18.60484 0 0 -18.6341 14.73807 14.34408 -2.973491
1.868275 99.88638 24.24816 -1.957344 4.367416 2.302377 8.252784 -34.14916 5.451557 -0 15.92089 -0 -5.950092 -5.750177 -1.771374 -4.970108 14.49847 -15.83818 -0 20.19721 -0 -1.174237 -20.25596 13.74259 -2.100756 -2.248956 4.184977 3.172552 9.406596 -8.007828 1.277928 20.42046 7.39532 3.535884 -25.85711 9.726857 5.653997 -18.10422 11.40923 86.10999 35.50568 -19.79055 -0 0 12.91964 -7.975423 9.633706 5.041125 7.424575 -21.30699 -0.6158762 -90.93329 21.72635 18.14098 0 0 -19.39592 14.39091 13.77815 -2.471728
2.089038 99.7234 29.45727 -2.297724 3.535442 2.690816 8.470096 -31.70531 4.711389 -0 16.0566 -0 -7.269098 -5.940832 -2.085717 -4.393304 13.9945 -14.85841 -0 26.37227 -0 -2.560203 -17.68909 11.90961 -2.123384 -2.054053 4.080366 3.232581 9.430604 -8.091488 1.210399 20.41747 7.442484 3.560242 -25.88549 9.627356 5.608541 -17.8895 11.40811 86.46056 35.78858 -20.00238 -0 0 12.26922 -8.262257 9.699417 5.342969 7.241076 -21.37721 -0.7466257 -90.4937 21.7306 17.73622 0 0 -19.80831 13.87181 13.32132 -1.83301
2.285443 100.0232 34.95557 -2.531919 2.430996 3.008156 8.638103 -28.03318 4.22111 -0 17.24589 -0 -8.622361 -6.816358 -2.5485 -3.777782 12.55548 -13.9541 -0 33.59611 -0 -3.766542 -14.44466 10.36568 -2.15901 -1.839278 3.963424 3.257496 9.501571 -8.127839 1.134619 20.50354 7.478624 3.614328 -25.76699 9.448637 5.600311 -17.62764 11.4413 86.70285 35.93563 -20.07708 -0 0 11.60882 -8.823904 9.819922 5.784352 7.01823 -21.4076 -0.9429254 -90.1959 21.82697 17.43943 0 0 -19.81228 13.13174 12.98315 -1.00476
2.477028 100.8458 40.57041 -2.602425 1.394806 3.248668 8.667888 -23.45731 4.0102 -0 18.64176 -0 -9.662883 -8.062085 -2.935517 -3.178178 9.598676 -12.93311 -0 41.16874 -0 -4.661008 -10.85367 9.190302 -2.208054 -1.603372 3.848899 3.238173 9.619261 -8.102844 1.048987 20.68222 7.502326 3.699274 -25.49412 9.183718 5.626972 -17.33561 11.5123 86.80001 35.93876 -19.96519 -0 0 10.9803 -9.689527 9.986257 6.38705 6.747129 -21.38008 -1.206344 -90.06452 22.02967 17.29692 0 0 -19.37561 12.13046 12.75555 0.05926107
2.692169 102.0945 46.14464 -2.4648 0.6462525 3.39881 8.458278 -18.34138 3.965526 -0 19.08336 -0 -10.15901 -9.188862 -2.970592 -2.594605 4.81994 -11.59101 -0 47.93391 -0 -5.058712 -7.402032 8.537491 -2.270902 -1.347928 3.759935 3.166693 9.773721 -8.002294 0.953165 20.94655 7.509088 3.808794 -25.06841 8.830891 5.677562 -17.045 11.62103 86.70522 35.79616 -19.60359 -0 0 10.45245 -10.86908 10.184 7.166652 6.42086 -21.27427 -1.527968 -90.10387 22.33233 17.34641 0 0 -18.51622 10.85362 12.60739 1.381703
2.950024 103.5015 51.56941 -2.120785 0.06565852 3.410479 8.011517 -12.98952 3.868171 -0 17.70484 -0 -10.17575 -9.836848 -2.535764 -1.93793 -1.371382 -9.882104 -0 52.48485 -0 -4.824181 -4.643352 8.649602 -2.347499 -1.080344 3.72897 3.038027 9.941675 -7.813861 0.8496155 21.2746 7.490274 3.926129 -24.50546 8.398498 5.730893 -16.80581 11.76187 86.36413 35.51339 -18.92038 -0 0 10.12819 -12.33597 10.39247 8.121585 6.038496 -21.06914 -1.883262 -90.29141 22.70089 17.61023 0 0 -17.32116 9.332855 12.48506 2.940678
3.247643 104.7101 56.78542 -1.646371 -0.7480143 3.22191 7.466755 -7.621128 3.548401 -0 14.66409 -0 -10.01276 -10.23724 -1.870542 -1.105961 -7.794745 -8.025328 -0 53.6328 -0 -4.066987 -2.979459 9.680851 -2.436677 -0.8158431 3.793894 2.85239 10.08694 -7.530665 0.7447128 21.62867 7.434086 4.024355 -23.83974 7.909318 5.758074 -16.68356 11.92265 85.72707 35.10459 -17.85181 -0 0 10.13653 -14.01132 10.5859 9.221207 5.608889 -20.74701 -2.230701 -90.5798 23.07657 18.09158 0 0 -15.94646 7.658192 12.32532 4.656169
3.571136 105.4171 61.77575 -1.176303 -2.049053 2.819207 6.969645 -2.422335 3.019498 -0 11.13079 -0 -9.886612 -11.18789 -1.417264 -0.1193703 -13.18382 -6.403847 -0 50.88685 -0 -3.153131 -2.447739 11.43595 -2.535812 -0.5750381 3.985947 2.618144 10.16806 -7.156665 0.6480283 21.96203 7.329481 4.072397 -23.1235 7.39999 5.730293 -16.7419 12.08571 84.77352 34.59288 -16.37254 -0 0 10.59428 -15.76531 10.73968 10.40234 5.151377 -20.30118 -2.519267 -90.9056 23.39101 18.76823 0 0 -14.58785 5.968924 12.07737 6.396804
3.921372 105.4752 66.58596 -0.8289892 -3.605984 2.25661 6.528379 2.457451 2.417581 -0 8.333096 -0 -9.786111 -13.23459 -1.386896 0.8705151 -17.02501 -5.308581 -0 44.63284 -0 -2.408071 -2.73215 13.38831 -2.640396 -0.376775 4.313383 2.353082 10.15371 -6.711961 0.569372 22.23173 7.172427 4.046273 -22.41715 6.91348 5.629264 -17.01414 12.23155 83.54111 34.00942 -14.53062 -0 0 11.5451 -17.44521 10.83983 11.58018 4.692723 -19.74637 -2.705238 -91.20175 23.58682 19.58436 0 0 -13.42991 4.41985 11.7208 8.011052
4.3242 104.9122 71.33638 -0.6198402 -4.842673 1.624107 6.016411 6.931866 1.912038 -0 6.817064 -0 -9.536974 -16.03602 -1.584395 1.67714 -19.61409 -4.78972 -0 36.02104 -0 -1.906624 -3.373903 15.02876 -2.742971 -0.2309407 4.752072 2.080868 10.04035 -6.233072 0.5151502 22.41089 6.971699 3.941142 -21.77511 6.487882 5.455539 -17.48108 12.3447 82.13993 33.39071 -12.46607 -0 0 12.91414 -18.92005 10.88842 12.66925 4.262757 -19.12494 -2.770535 -91.41588 23.63377 20.45542 0 0 -12.59128 3.136858 11.26944 9.370726
4.816855 103.8905 76.18386 -0.4540533 -5.277719 1.009882 5.280676 10.91844 1.695847 -0 6.575061 -0 -8.866274 -18.62428 -1.648286 2.13357 -21.46371 -4.73489 -0 26.71108 -0 -1.573366 -3.998791 16.15755 -2.832818 -0.136017 5.250046 1.823627 9.86021 -5.765631 0.4862335 22.4949 6.750209 3.776984 -21.23476 6.147505 5.230487 -18.0711 12.41926 80.73575 32.77639 -10.39344 -0 0 14.51284 -20.11641 10.89963 13.60283 3.890332 -18.5017 -2.731259 -91.53033 23.53585 21.29175 0 0 -12.09067 2.183436 10.76292 10.40613
5.427289 102.6244 81.26602 -0.2303548 -4.93376 0.4644721 4.300661 14.32604 1.833349 -0 7.469569 -0 -7.696614 -19.98426 -1.366916 2.14588 -22.80682 -4.983424 -0 18.4152 -0 -1.305836 -4.442025 16.90921 -2.898364 -0.08157919 5.743187 1.596059 9.670446 -5.352937 0.4783559 22.49925 6.539212 3.59238 -20.81225 5.899628 4.989629 -18.68313 12.4602 79.5043 32.20728 -8.547627 -0 0 16.09505 -21.02614 10.89096 14.34348 3.598712 -17.94733 -2.630498 -91.56547 23.32672 22.02212 0 0 -11.85771 1.553612 10.25114 11.11599
6.163138 101.3086 86.68224 0.05582712 -4.342067 -0.007068019 3.269283 17.13476 2.081721 -0 9.506467 -0 -6.442901 -19.3667 -0.7876213 1.732642 -23.54179 -5.381586 -0 12.32381 -0 -0.971174 -4.718158 17.56675 -2.931418 -0.05342475 6.174434 1.404357 9.528633 -5.025787 0.4846897 22.4504 6.367279 3.428486 -20.50419 5.737121 4.769383 -19.22069 12.4792 78.57854 31.71862 -7.115291 -0 0 17.43696 -21.68793 10.87681 14.88357 3.400737 -17.51795 -2.519286 -91.5597 23.05458 22.6018 0 0 -11.78394 1.192223 9.77779 11.54931
